<?xml version="1.0" standalone="no"?>
<!DOCTYPE svg PUBLIC "-//W3C//DTD SVG 20010904//EN"
 "http://www.w3.org/TR/2001/REC-SVG-20010904/DTD/svg10.dtd">
<svg version="1.0" xmlns="http://www.w3.org/2000/svg"
 width="225.000000pt" height="225.000000pt" viewBox="0 0 225.000000 225.000000"
 preserveAspectRatio="xMidYMid meet">
<metadata>
Created by potrace 1.11, written by Peter Selinger 2001-2013
</metadata>
<g transform="translate(0.000000,225.000000) scale(0.100000,-0.100000)"
fill="#000000" stroke="none">
<path d="M965 2136 c-150 -37 -297 -150 -407 -314 -13 -20 -26 -24 -79 -26
-100 -4 -192 -63 -306 -195 -67 -78 -179 -239 -171 -246 2 -2 31 12 63 31 157
95 321 164 384 163 l36 0 -25 -17 c-116 -79 -206 -214 -240 -361 -18 -78 -8
-249 21 -330 36 -105 112 -207 199 -268 91 -64 77 -50 158 -152 262 -330 710
-407 1056 -181 81 53 184 152 235 226 23 32 54 61 94 84 109 64 207 196 242
326 21 76 21 240 1 316 -41 151 -146 288 -272 355 -35 19 -74 49 -90 70 -15
21 -57 67 -93 102 l-66 63 60 -6 c33 -4 82 -9 108 -12 l49 -6 -44 39 c-178
160 -393 283 -575 329 -107 27 -251 31 -338 10z m452 -361 c43 -15 98 -38 123
-52 58 -33 150 -101 150 -111 0 -5 -26 -13 -57 -20 -164 -34 -295 -148 -367
-319 -14 -34 -28 -80 -32 -103 l-7 -42 -18 72 c-34 134 -133 270 -242 334 -55
32 -151 66 -189 66 -15 0 -28 3 -28 8 0 13 104 83 180 122 67 34 149 61 220
74 59 11 190 -4 267 -29z m-636 -255 c123 -23 243 -110 308 -222 29 -52 66
-166 56 -176 -5 -5 -6 -2 -24 66 -7 24 -21 50 -31 59 -10 9 -17 20 -14 25 19
31 -146 191 -177 172 -7 -4 -9 -3 -6 3 9 14 -48 37 -64 27 -7 -4 -10 -3 -6 3
7 11 -58 23 -122 23 -53 0 -151 -28 -188 -53 -28 -19 -30 -23 -15 -30 11 -5 8
-6 -9 -2 -28 5 -55 -15 -41 -30 4 -5 2 -5 -4 -2 -14 8 -76 -52 -70 -68 2 -5 8
-9 14 -8 6 2 9 -4 5 -12 -5 -14 -7 -13 -18 1 -11 15 -14 14 -28 -15 -9 -18
-14 -40 -11 -49 5 -13 4 -14 -4 -3 -7 10 -14 1 -25 -35 -9 -27 -18 -58 -20
-69 -3 -11 -3 0 -1 25 7 71 65 183 131 249 62 61 126 97 208 117 64 16 90 16
156 4z m1028 0 c133 -25 254 -122 316 -252 19 -40 36 -93 39 -118 2 -25 1 -32
-1 -16 -4 23 -7 26 -14 15 -7 -10 -8 -6 -3 12 3 15 1 30 -5 33 -6 4 -11 2 -11
-5 0 -7 -3 -9 -6 -6 -4 4 -1 13 6 22 10 12 10 15 0 15 -8 0 -11 3 -7 6 3 4 -3
25 -15 47 -20 39 -21 40 -35 21 -11 -13 -17 -15 -20 -6 -3 6 -10 9 -15 6 -7
-4 -8 -2 -4 4 4 6 14 8 24 5 15 -6 16 -5 2 13 -14 18 -14 18 3 5 9 -7 17 -9
17 -4 0 16 -36 44 -45 36 -4 -5 -5 -3 -2 4 9 14 -21 46 -34 37 -14 -8 0 -26
14 -18 7 4 9 3 4 -1 -4 -5 0 -19 8 -32 9 -13 11 -23 5 -23 -5 0 -10 6 -10 13
0 9 -2 9 -8 -1 -7 -9 -13 -8 -27 8 -19 21 -8 29 13 8 8 -8 12 -8 12 -1 0 17
-28 35 -41 27 -7 -4 -9 -3 -5 4 3 5 0 13 -6 16 -7 3 -3 3 9 1 12 -3 24 -2 27
3 8 13 -42 45 -56 36 -6 -4 -8 -3 -5 3 4 6 -14 21 -41 34 -40 20 -62 23 -152
23 -89 0 -114 -4 -163 -26 -78 -33 -179 -121 -173 -151 2 -12 0 -31 -5 -42 -7
-15 -8 -12 -5 13 2 17 2 32 0 32 -6 0 -56 -101 -70 -145 l-14 -40 6 39 c21
147 178 308 334 342 70 16 95 16 159 4z m-1079 -50 c13 -8 13 -10 -2 -10 -9 0
-20 5 -23 10 -8 13 5 13 25 0z m90 -10 c8 -5 11 -10 5 -10 -5 0 -17 5 -25 10
-8 5 -10 10 -5 10 6 0 17 -5 25 -10z m805 -8 c-3 -3 -11 0 -18 7 -9 10 -8 11
6 5 10 -3 15 -9 12 -12z m-992 1 c-7 -2 -19 -2 -25 0 -7 3 -2 5 12 5 14 0 19
-2 13 -5z m1184 1 c-3 -3 -12 -4 -19 -1 -8 3 -5 6 6 6 11 1 17 -2 13 -5z
m-1084 -21 c-7 -2 -19 -2 -25 0 -7 3 -2 5 12 5 14 0 19 -2 13 -5z m62 -3 c3
-5 -1 -10 -9 -10 -8 0 -18 5 -21 10 -3 6 1 10 9 10 8 0 18 -4 21 -10z m992 4
c-3 -3 -12 -4 -19 -1 -8 3 -5 6 6 6 11 1 17 -2 13 -5z m-271 -36 c-1 -25 -33
-38 -33 -14 0 13 3 13 16 3 12 -10 14 -9 9 5 -4 9 -4 19 -1 22 10 9 10 8 9
-16z m271 16 c-3 -3 -12 -4 -19 -1 -8 3 -5 6 6 6 11 1 17 -2 13 -5z m-843 -23
c4 -5 -3 -7 -14 -4 -23 6 -26 13 -6 13 8 0 17 -4 20 -9z m-241 -8 c-13 -2 -33
-2 -45 0 -13 2 -3 4 22 4 25 0 35 -2 23 -4z m258 -21 c-6 -2 -8 -9 -5 -14 4
-7 2 -8 -4 -4 -9 5 -8 12 1 27 7 12 13 15 16 7 2 -7 -1 -14 -8 -16z m39 -8 c0
-18 5 -24 23 -24 18 -1 19 -2 7 -10 -36 -21 -44 -16 -45 27 -1 23 2 40 7 37 4
-3 8 -16 8 -30z m707 30 c-3 -3 -12 -4 -19 -1 -8 3 -5 6 6 6 11 1 17 -2 13 -5z
m-1257 -23 c0 -5 -8 -17 -17 -27 -20 -20 -32 -1 -13 21 14 17 30 20 30 6z m64
-19 c-16 -15 -30 -27 -32 -26 -9 4 13 33 31 42 32 16 32 15 1 -16z m383 3 c-7
-7 -16 -10 -22 -5 -5 4 -17 10 -25 14 -8 3 -2 4 13 1 18 -4 26 -2 22 4 -3 7 0
8 9 5 12 -5 13 -9 3 -19z m1044 8 c11 -15 11 -16 -1 -6 -10 9 -18 9 -34 1 -19
-10 -20 -10 -7 5 17 21 25 21 42 0z m-381 3 c0 -9 -30 -14 -35 -6 -4 6 3 10
14 10 12 0 21 -2 21 -4z m-628 -38 c-6 -6 -16 -7 -22 -3 -9 6 -9 9 1 16 17 10
34 0 21 -13z m502 -23 c-5 -20 -3 -24 10 -19 9 3 16 12 16 20 0 8 5 14 10 14
15 0 12 -19 -4 -36 -27 -27 -53 -11 -41 26 9 29 17 25 9 -5z m-479 5 c-3 -5
-12 -10 -18 -10 -7 0 -6 4 3 10 19 12 23 12 15 0z m-147 -29 c94 -48 157 -136
168 -237 10 -90 -39 -181 -123 -231 -65 -38 -175 -44 -256 -13 -31 12 -62 31
-68 42 -16 30 -25 178 -10 178 6 0 11 -6 11 -14 0 -8 5 -18 12 -22 8 -5 9 -2
5 9 -8 22 3 78 14 72 4 -3 13 3 18 14 16 29 13 39 -4 17 -20 -27 -19 -11 1 19
19 29 80 69 93 61 5 -4 12 -1 14 4 3 6 4 5 3 -2 -2 -7 -9 -12 -15 -10 -7 1
-10 -2 -7 -7 3 -5 -2 -7 -12 -4 -12 3 -19 -1 -19 -11 0 -13 3 -13 15 -3 9 6
13 8 11 2 -37 -78 -41 -93 -37 -136 6 -61 38 -104 100 -134 39 -19 55 -22 75
-14 13 5 30 6 36 2 7 -3 9 -3 6 1 -4 4 8 21 26 39 37 37 51 93 40 159 -9 51
-72 122 -99 112 -9 -3 -23 -1 -31 6 -11 9 -19 8 -37 -4 -18 -13 -19 -16 -5
-16 24 0 50 -45 43 -73 -12 -50 -96 -54 -112 -5 -7 24 13 75 33 82 8 3 12 10
8 15 -14 24 89 24 150 1 38 -15 47 -12 33 9 -28 46 -185 53 -263 13 -46 -23
-90 -66 -104 -102 -8 -21 -10 -22 -10 -5 -2 48 21 151 37 167 51 49 182 59
260 19z m1063 0 c52 -25 56 -33 64 -155 4 -61 3 -66 -6 -36 -16 53 -45 86 -94
110 -78 38 -192 44 -270 14 -18 -7 -18 -6 -6 9 17 22 74 57 120 74 48 18 135
11 192 -16z m-861 -25 c0 -6 -5 -18 -10 -26 -8 -11 -9 -8 -4 11 3 15 1 30 -5
33 -6 4 -11 13 -11 19 0 7 7 3 15 -7 8 -11 15 -25 15 -30z m45 34 c-4 -6 -2
-17 4 -24 8 -9 7 -13 -4 -13 -8 0 -11 5 -8 10 4 6 0 8 -10 4 -22 -8 -22 9 1
22 22 13 25 13 17 1z m-628 -31 c0 -21 -3 -26 -9 -16 -4 9 -5 22 -2 31 9 23
11 20 11 -15z m1613 15 c0 -8 -4 -12 -10 -9 -5 3 -10 10 -10 16 0 5 5 9 10 9
6 0 10 -7 10 -16z m-1649 -8 c12 7 11 -7 -1 -26 -7 -11 -10 -11 -10 -2 0 7 -4
10 -10 7 -5 -3 -10 0 -10 8 0 18 14 31 18 18 2 -6 8 -9 13 -5z m1709 -21 c0
-5 -5 -3 -10 5 -5 8 -10 20 -10 25 0 6 5 3 10 -5 5 -8 10 -19 10 -25z m-71
-19 c-2 -2 -13 8 -23 22 l-19 27 24 -22 c12 -12 21 -24 18 -27z m41 34 c0 -5
-5 -10 -11 -10 -5 0 -7 5 -4 10 3 6 8 10 11 10 2 0 4 -4 4 -10z m-616 -19 c3
-4 -4 -7 -14 -8 -11 -1 -22 2 -24 6 -3 4 4 7 14 8 11 1 22 -2 24 -6z m-360 -9
c2 -4 -5 -9 -17 -9 -17 -2 -19 0 -7 7 18 12 18 12 24 2z m-671 -27 c-3 -9 -8
-14 -10 -11 -3 3 -2 9 2 15 9 16 15 13 8 -4z m933 -47 c-19 -27 -21 -13 -3 25
8 17 13 22 15 12 2 -8 -4 -25 -12 -37z m180 26 c-5 -13 -2 -15 16 -9 13 3 34
8 47 10 22 3 21 1 -12 -33 -43 -44 -57 -78 -57 -138 0 -52 19 -94 56 -123 23
-18 24 -21 8 -22 -30 -2 57 -18 100 -18 22 -1 37 2 33 5 -3 4 8 16 25 28 48
32 71 79 72 146 1 78 -31 121 -106 142 -64 18 -96 12 -51 -10 37 -17 47 -46
30 -82 -10 -20 -19 -25 -52 -25 -34 0 -41 4 -49 28 -7 20 -7 33 2 45 7 9 18
29 24 43 10 23 17 26 64 26 31 0 51 -4 47 -10 -3 -5 3 -6 16 -2 12 4 21 2 21
-4 0 -6 7 -7 17 -4 11 4 14 3 9 -5 -5 -8 -2 -10 8 -6 9 3 16 1 16 -5 0 -6 5
-11 10 -11 19 0 61 -54 57 -71 -3 -11 0 -16 8 -13 8 3 15 -8 20 -33 l7 -38 13
25 c12 22 13 17 8 -50 -9 -122 -19 -141 -83 -167 -71 -29 -177 -31 -236 -4
-51 23 -111 83 -132 130 -25 59 -20 142 13 211 26 55 46 83 31 44z m-139 -16
c-3 -8 -6 -5 -6 6 -1 11 2 17 5 13 3 -3 4 -12 1 -19z m693 2 c0 -5 -4 -10 -10
-10 -5 0 -10 5 -10 10 0 6 5 10 10 10 6 0 10 -4 10 -10z m-1028 -25 c3 -14 1
-28 -3 -31 -5 -3 -9 1 -9 10 0 8 -5 16 -12 18 -6 2 -8 10 -4 16 12 19 23 14
28 -13z m-732 11 c0 -3 -4 -8 -10 -11 -5 -3 -10 -1 -10 4 0 6 5 11 10 11 6 0
10 -2 10 -4z m1748 -37 c-3 -8 -7 -3 -11 10 -4 17 -3 21 5 13 5 -5 8 -16 6
-23z m-1731 -11 c-3 -7 -5 -2 -5 12 0 14 2 19 5 13 2 -7 2 -19 0 -25z m20 0
c-3 -7 -5 -2 -5 12 0 14 2 19 5 13 2 -7 2 -19 0 -25z m1033 27 c0 -2 -9 -19
-20 -37 -22 -37 -27 -27 -7 15 10 23 27 37 27 22z m-1089 -101 c-5 -35 -9 -46
-10 -28 -1 34 9 97 15 91 2 -2 0 -30 -5 -63z m829 62 c0 -3 -4 -8 -10 -11 -5
-3 -10 -1 -10 4 0 6 5 11 10 11 6 0 10 -2 10 -4z m160 -6 c0 -5 -5 -10 -11
-10 -5 0 -7 5 -4 10 3 6 8 10 11 10 2 0 4 -4 4 -10z m40 -15 c0 -8 -5 -15 -11
-15 -5 0 -8 4 -5 9 4 5 0 12 -6 14 -8 3 -6 6 5 6 9 1 17 -6 17 -14z m-93 -11
c-3 -3 -12 -4 -19 -1 -8 3 -5 6 6 6 11 1 17 -2 13 -5z m160 -36 c-3 -7 -5 -2
-5 12 0 14 2 19 5 13 2 -7 2 -19 0 -25z m665 -20 c2 -22 0 -34 -6 -31 -5 4 -7
-1 -3 -11 4 -10 -9 -46 -33 -92 -21 -41 -39 -77 -39 -79 -1 -3 -4 -5 -8 -6 -5
0 -16 -8 -26 -16 -14 -13 -15 -18 -5 -25 10 -7 9 -8 -2 -6 -8 2 -31 -7 -50
-18 -59 -36 -108 -47 -187 -42 -40 3 -76 1 -79 -3 -3 -5 -11 -9 -17 -9 -7 0
-4 7 6 14 17 13 16 15 -10 20 -16 4 -48 23 -72 44 -24 20 -47 36 -50 35 -9 -4
-8 -27 2 -34 5 -4 4 -10 -2 -13 -6 -4 -11 -2 -11 4 0 6 -4 9 -9 6 -5 -3 -8 2
-7 12 0 9 7 21 14 25 6 4 12 13 12 18 0 6 -5 7 -10 4 -6 -4 -10 -3 -9 2 3 13
-12 43 -20 39 -3 -2 -7 7 -7 20 -2 21 2 18 25 -18 35 -55 93 -105 150 -131 66
-30 170 -29 236 1 106 49 190 168 202 290 7 60 9 60 15 0z m-292 -31 c0 -42
-43 -77 -94 -77 -58 0 -86 22 -86 68 l0 37 18 -35 c19 -39 55 -56 95 -46 31 7
48 35 49 77 1 38 18 16 18 -24z m-921 -18 c2 -26 -48 -69 -81 -69 -52 0 -116
48 -88 65 6 4 10 2 10 -3 0 -12 45 -32 72 -32 32 0 68 39 69 74 1 30 1 30 9 6
4 -14 8 -32 9 -41z m176 -1 c-9 -54 -55 -146 -89 -177 -14 -13 -23 -28 -19
-34 3 -6 1 -7 -5 -3 -6 3 -13 2 -17 -4 -14 -23 -104 -53 -175 -57 -41 -3 -81
-10 -88 -16 -7 -5 -16 -7 -19 -3 -4 4 -1 11 6 15 21 13 -36 23 -59 11 -12 -7
-20 -7 -20 -1 0 5 8 11 18 14 14 3 12 6 -8 14 -14 6 -46 33 -72 60 l-46 50
-11 -31 -11 -31 5 33 c3 24 1 31 -8 26 -8 -6 -8 -3 1 9 14 16 8 42 -8 32 -4
-3 -6 4 -3 15 5 17 9 14 33 -22 119 -188 356 -220 494 -68 42 47 82 122 91
173 10 52 18 47 10 -5z m101 23 c-4 -5 0 -12 6 -14 8 -3 6 -6 -4 -6 -18 -1
-24 10 -11 22 9 10 15 8 9 -2z m-766 -11 c0 -5 -7 -7 -15 -4 -8 4 -15 8 -15
10 0 2 7 4 15 4 8 0 15 -4 15 -10z m1797 -12 c-3 -8 -6 -5 -6 6 -1 11 2 17 5
13 3 -3 4 -12 1 -19z m-919 5 c-23 -6 -22 -17 1 -84 32 -94 69 -156 132 -224
80 -85 191 -142 292 -152 l68 -6 -33 -34 c-48 -50 -182 -136 -259 -166 -127
-50 -259 -57 -389 -20 -113 32 -300 145 -339 206 -10 15 -7 17 26 17 98 0 220
56 308 141 65 62 134 178 155 259 17 68 18 70 37 69 17 -1 17 -2 1 -6z m89
-25 c-3 -8 -6 -5 -6 6 -1 11 2 17 5 13 3 -3 4 -12 1 -19z m50 -10 c-3 -8 -6
-5 -6 6 -1 11 2 17 5 13 3 -3 4 -12 1 -19z m47 -14 c3 -8 2 -12 -4 -9 -6 3
-10 10 -10 16 0 14 7 11 14 -7z m-77 0 c-3 -3 -12 -4 -19 -1 -8 3 -5 6 6 6 11
1 17 -2 13 -5z m-247 -18 c0 -2 -7 -9 -15 -16 -13 -11 -14 -10 -9 4 5 14 24
23 24 12z m294 -18 c11 -41 6 -53 -9 -24 -17 32 -19 46 -6 46 5 0 11 -10 15
-22z m707 -74 c-6 -25 -8 -26 -15 -9 -4 11 -3 21 3 23 7 2 7 12 0 28 -13 37
-10 43 6 13 9 -17 11 -36 6 -55z m-42 36 c10 -22 10 -23 -1 -8 -13 15 -15 15
-26 0 -9 -13 -9 -11 0 11 6 15 12 26 13 25 1 -2 8 -14 14 -28z m-1709 -14 c-4
-4 -6 -16 -3 -25 4 -13 3 -13 -5 -2 -5 7 -8 21 -7 30 2 9 4 21 4 26 1 6 6 3
11 -5 5 -9 5 -19 0 -24z m670 8 c8 -9 9 -14 2 -12 -6 2 -18 -6 -26 -17 -8 -11
-16 -15 -16 -9 0 6 7 17 15 24 8 7 12 16 9 21 -9 15 3 10 16 -7z m47 -13 c0
-11 -5 -17 -9 -15 -11 7 -10 34 1 34 6 0 9 -9 8 -19z m-677 -7 c0 -8 -19 -13
-24 -6 -3 5 1 9 9 9 8 0 15 -2 15 -3z m1020 -27 c0 18 37 36 37 18 0 -8 -3
-12 -7 -10 -4 3 -15 -4 -25 -15 -18 -20 -18 -20 -31 6 -20 37 -17 43 6 14 11
-14 20 -20 20 -13z m-370 13 c0 -5 -4 -10 -10 -10 -5 0 -10 5 -10 10 0 6 5 10
10 10 6 0 10 -4 10 -10z m-642 -51 c-1 -36 -13 -46 -26 -22 -11 21 3 67 17 58
5 -3 9 -19 9 -36z m56 25 c3 -8 2 -12 -4 -9 -6 3 -10 10 -10 16 0 14 7 11 14
-7z m516 -14 c0 -13 -7 -20 -20 -20 -18 0 -19 3 -10 20 6 11 15 20 20 20 6 0
10 -9 10 -20z m70 -5 c-7 -9 -15 -13 -17 -11 -6 6 20 36 26 30 2 -2 -2 -10 -9
-19z m400 5 c0 -5 -4 -10 -10 -10 -5 0 -10 5 -10 10 0 6 5 10 10 10 6 0 10 -4
10 -10z m543 -11 c-8 -8 -13 -7 -18 2 -5 8 -4 10 3 5 7 -4 12 -2 12 5 0 7 3 9
7 6 4 -4 2 -12 -4 -18z m-1536 -16 c0 -8 -6 -9 -19 -2 -10 5 -18 11 -18 12 0
2 8 3 18 3 10 0 19 -6 19 -13z m1097 -15 c11 -10 26 -18 33 -18 7 0 13 -7 13
-16 0 -14 -1 -14 -16 0 -18 18 -34 21 -34 5 0 -5 -5 -7 -11 -4 -6 4 -8 14 -5
22 4 11 2 13 -9 9 -9 -3 -15 0 -15 9 0 19 18 15 44 -7z m486 7 c-6 -8 -9 -18
-7 -22 3 -5 -3 -10 -14 -10 -12 -1 -19 4 -18 15 0 12 2 13 6 4 4 -10 9 -8 20
7 8 12 17 21 20 21 3 0 0 -7 -7 -15z m-1075 -5 c-3 -5 -11 -10 -16 -10 -6 0
-7 5 -4 10 3 6 11 10 16 10 6 0 7 -4 4 -10z m-530 -10 c3 -5 1 -10 -4 -10 -6
0 -11 5 -11 10 0 6 2 10 4 10 3 0 8 -4 11 -10z m45 -10 c0 -5 -5 -10 -11 -10
-5 0 -7 5 -4 10 3 6 8 10 11 10 2 0 4 -4 4 -10z m430 0 c0 -5 -5 -10 -11 -10
-5 0 -7 5 -4 10 3 6 8 10 11 10 2 0 4 -4 4 -10z m79 -26 c-36 -35 -37 -36 -65
-20 -33 17 -28 21 9 7 21 -8 29 -5 53 20 15 16 30 29 33 29 3 0 -11 -16 -30
-36z m-34 6 c3 -5 1 -10 -4 -10 -6 0 -11 5 -11 10 0 6 2 10 4 10 3 0 8 -4 11
-10z m-121 -32 c-3 -4 -10 -8 -16 -8 -6 0 -8 3 -5 7 4 3 1 13 -6 21 -11 13 -9
14 10 2 12 -8 19 -18 17 -22z m26 22 c0 -5 -2 -10 -4 -10 -3 0 -8 5 -11 10 -3
6 -1 10 4 10 6 0 11 -4 11 -10z m-306 -8 c6 -9 -69 -10 -78 -1 -3 3 12 6 33 7
22 1 42 -2 45 -6z m996 -2 c-8 -5 -19 -10 -25 -10 -5 0 -3 5 5 10 8 5 20 10
25 10 6 0 3 -5 -5 -10z m305 1 c3 -5 1 -12 -5 -16 -5 -3 -10 1 -10 9 0 18 6
21 15 7z m75 -6 c16 -19 0 -19 -26 0 -16 12 -16 14 -3 15 9 0 22 -7 29 -15z
m-1040 -30 c14 -19 14 -19 -2 -6 -10 7 -18 18 -18 24 0 6 1 8 3 6 1 -2 9 -13
17 -24z m667 9 c-20 -11 -32 -12 -45 -4 -15 10 -15 10 3 6 11 -3 27 -1 35 4 8
5 20 10 25 9 6 0 -2 -7 -18 -15z m-1000 -23 c0 -11 -7 -17 -14 -14 -9 4 -9 8
0 19 16 17 16 17 14 -5z m302 0 l24 -6 -26 -12 c-22 -11 -25 -10 -20 4 5 12 1
14 -15 8 -13 -4 -22 -2 -22 4 0 12 22 13 59 2z m-99 -41 c-8 -5 -22 -9 -30 -9
-10 0 -8 3 5 9 27 12 43 12 25 0z m1025 0 c19 -8 19 -9 -2 -9 -12 -1 -25 4
-28 9 -7 12 2 12 30 0z m-52 -7 c-7 -2 -21 -2 -30 0 -10 3 -4 5 12 5 17 0 24
-2 18 -5z"/>
<path d="M870 1146 c0 -2 7 -7 16 -10 8 -3 12 -2 9 4 -6 10 -25 14 -25 6z"/>
<path d="M610 1130 c-11 -7 -12 -12 -4 -20 8 -8 13 -6 17 9 3 12 4 21 4 21 -1
0 -9 -5 -17 -10z"/>
<path d="M1575 1160 c-3 -6 1 -7 9 -4 18 7 21 14 7 14 -6 0 -13 -4 -16 -10z"/>
<path d="M1800 1136 c0 -2 8 -10 18 -17 15 -13 16 -12 3 4 -13 16 -21 21 -21
13z"/>
<path d="M1840 1112 c0 -5 10 -17 21 -28 22 -19 22 -19 10 3 -12 24 -31 39
-31 25z"/>
<path d="M1753 853 c9 -2 23 -2 30 0 6 3 -1 5 -18 5 -16 0 -22 -2 -12 -5z"/>
<path d="M1414 531 c17 -19 16 -20 -21 -44 -128 -80 -299 -75 -422 12 -40 29
-50 21 -17 -12 14 -15 26 -34 26 -43 0 -36 44 -94 88 -115 89 -43 211 -1 321
110 51 52 70 65 90 63 19 -3 12 4 -24 22 -60 31 -63 32 -41 7z m-224 -114 c63
0 99 5 140 21 l55 21 -27 -23 c-39 -35 -130 -66 -192 -66 -88 0 -166 36 -166
76 0 8 16 6 53 -8 37 -15 76 -21 137 -21z"/>
<path d="M386 727 c3 -10 9 -15 12 -12 3 3 0 11 -7 18 -10 9 -11 8 -5 -6z"/>
</g>
</svg>
